<svg width="360" height="260" viewBox="0 0 360 260" fill="none" xmlns="http://www.w3.org/2000/svg">
  <defs>
    <linearGradient id="heroGradient" x1="0" y1="0" x2="360" y2="260" gradientUnits="userSpaceOnUse">
      <stop offset="0%" stop-color="#8E2DE2" />
      <stop offset="100%" stop-color="#4A90E2" />
    </linearGradient>
    <linearGradient id="bubbleGradient" x1="0" y1="0" x2="1" y2="1">
      <stop offset="0%" stop-color="#FFFFFF" stop-opacity="0.9" />
      <stop offset="100%" stop-color="#E4F1FF" stop-opacity="0.6" />
    </linearGradient>
  </defs>
  <rect x="0" y="0" width="360" height="260" rx="24" fill="url(#heroGradient)" />
  <g opacity="0.65">
    <circle cx="80" cy="60" r="32" fill="url(#bubbleGradient)" />
    <circle cx="290" cy="90" r="40" fill="url(#bubbleGradient)" />
    <circle cx="180" cy="210" r="45" fill="url(#bubbleGradient)" />
  </g>
  <g stroke="white" stroke-width="2.5" stroke-linecap="round" stroke-linejoin="round">
    <path d="M120 115C120 100.088 132.088 88 147 88H213C227.912 88 240 100.088 240 115V134C240 148.912 227.912 161 213 161H163L140 182V161H147C132.088 161 120 148.912 120 134V115Z" fill="rgba(255,255,255,0.75)" />
    <path d="M190 120H170" />
    <path d="M210 134H170" />
    <path d="M150 120H147" />
    <path d="M150 134H147" />
  </g>
  <g stroke="white" stroke-width="2.5" stroke-linecap="round" stroke-linejoin="round" opacity="0.7">
    <rect x="110" y="54" width="140" height="28" rx="14" fill="rgba(255,255,255,0.35)" />
    <path d="M128 68H232" />
  </g>
  <g fill="white" opacity="0.9">
    <circle cx="95" cy="205" r="6" />
    <circle cx="280" cy="65" r="5" />
    <circle cx="250" cy="210" r="4" />
  </g>
</svg>
